Coordinates
version=1
nRows=17
nColumns=27
inDegrees=yes

Units are S.I. units (second, meters, Newtons, ...)
If the header above contains a line with 'inDegrees', this indicates whether rotational values are in degrees (yes) or radians (no).

endheader
time	pelvis_rotation	pelvis_tilt	pelvis_list	pelvis_tx	pelvis_ty	pelvis_tz	hip_flexion_r	hip_adduction_r	hip_rotation_r	knee_angle_r	knee_rotation_r	knee_adduction_r	knee_angle_r_beta	ankle_angle_r	subtalar_angle_r	mtp_angle_r	hip_flexion_l	hip_adduction_l	hip_rotation_l	knee_angle_l	knee_rotation_l	knee_adduction_l	knee_angle_l_beta	ankle_angle_l	subtalar_angle_l	mtp_angle_l
      4.64000000	      3.26065684	    -30.30976921	      2.64682622	      0.03856030	      0.44407007	     -1.15581986	    128.20546310	    -43.84556056	     26.75261402	    110.87267959	      0.00000000	      9.94116478	      1.93509331	     18.46759899	      0.00000000	      0.00000000	    123.06541419	    -33.22248760	     23.11885652	    104.44827730	      0.00000000	     -9.95641175	      1.82296634	     15.22334861	      0.00000000	      0.00000000
      4.64500000	      3.25096487	    -30.39867123	      2.85077406	      0.03818313	      0.44440009	     -1.15580801	    128.42189946	    -43.59740013	     26.96922492	    110.86268792	      0.00000000	      9.94087358	      1.93491892	     18.42945347	      0.00000000	      0.00000000	    122.99146840	    -33.38108687	     22.83975367	    104.37576820	      0.00000000	     -9.95633186	      1.82170081	     15.17759603	      0.00000000	      0.00000000
      4.65000000	      3.33361530	    -30.45752808	      2.86534672	      0.03777716	      0.44477938	     -1.15588476	    128.44489725	    -43.61667099	     26.96126702	    110.81012266	      0.00000000	      9.94055546	      1.93400149	     18.38785439	      0.00000000	      0.00000000	    123.03209176	    -33.28850645	     22.76682828	    104.32478484	      0.00000000	     -9.95620818	      1.82081099	     15.09430186	      0.00000000	      0.00000000
      4.65500000	      3.52799093	    -30.48339211	      2.67428217	      0.03737362	      0.44527434	     -1.15605839	    128.26587143	    -43.96357807	     26.68926738	    110.70951402	      0.00000000	      9.94028502	      1.93224553	     18.33162273	      0.00000000	      0.00000000	    123.17388492	    -32.90679601	     22.91195178	    104.29537847	      0.00000000	     -9.95605195	      1.82029775	     14.98576753	      0.00000000	      0.00000000
      4.66000000	      3.49532649	    -30.58256470	      2.93692914	      0.03689702	      0.44573538	     -1.15602582	    128.50981705	    -43.61417812	     26.97371619	    110.68415160	      0.00000000	      9.93989050	      1.93180288	     18.25689752	      0.00000000	      0.00000000	    123.06227600	    -33.13792043	     22.55214030	    104.19258137	      0.00000000	     -9.95595366	      1.81850360	     14.92056182	      0.00000000	      0.00000000
      4.66500000	      3.53402814	    -30.66788053	      2.79317012	      0.03639517	      0.44632431	     -1.15610927	    128.35490774	    -43.69601822	     26.71836056	    110.58219159	      0.00000000	      9.93947028	      1.93002334	     18.24465359	      0.00000000	      0.00000000	    123.22763935	    -32.99440437	     22.64276014	    104.13185748	      0.00000000	     -9.95582626	      1.81744377	     14.79597820	      0.00000000	      0.00000000
      4.67000000	      3.59016983	    -30.74061629	      2.63958060	      0.03591959	      0.44702360	     -1.15620404	    128.17363195	    -43.82795133	     26.43144717	    110.45615382	      0.00000000	      9.93905095	      1.92782356	     18.19490627	      0.00000000	      0.00000000	    123.36801261	    -32.83495073	     22.72961133	    104.05750318	      0.00000000	     -9.95567435	      1.81614604	     14.72375854	      0.00000000	      0.00000000
      4.67500000	      3.77371255	    -30.80282002	      3.05742786	      0.03535629	      0.44762894	     -1.15626500	    128.57916643	    -43.63034213	     26.94022384	    110.43081372	      0.00000000	      9.93871745	      1.92738130	     18.07640121	      0.00000000	      0.00000000	    123.07750236	    -32.87814794	     22.16107027	    103.92463669	      0.00000000	     -9.95549732	      1.81382708	     14.61795300	      0.00000000	      0.00000000
      4.68000000	      3.89564172	    -30.85666455	      3.11837015	      0.03479545	      0.44838201	     -1.15633551	    128.57272633	    -43.64796386	     26.94281978	    110.33507044	      0.00000000	      9.93825752	      1.92571026	     18.07695146	      0.00000000	      0.00000000	    123.04277641	    -32.78023994	     21.99064686	    103.80835534	      0.00000000	     -9.95533596	      1.81179759	     14.42480772	      0.00000000	      0.00000000
      4.68500000	      3.95335321	    -30.98330975	      2.99667739	      0.03421352	      0.44925042	     -1.15646488	    128.45108169	    -43.73589675	     26.68489708	    110.19213030	      0.00000000	      9.93778749	      1.92321548	     17.93944801	      0.00000000	      0.00000000	    123.18428521	    -32.61417002	     22.02658488	    103.71903006	      0.00000000	     -9.95514803	      1.81023857	     14.35925397	      0.00000000	      0.00000000
      4.69000000	      4.07570285	    -31.01421408	      3.17508521	      0.03363132	      0.45007925	     -1.15654563	    128.53532322	    -43.66765017	     26.82762991	    110.10015600	      0.00000000	      9.93731363	      1.92161023	     17.87527067	      0.00000000	      0.00000000	    123.03713908	    -32.60034660	     21.70534172	    103.59068914	      0.00000000	     -9.95493076	      1.80799860	     14.19049806	      0.00000000	      0.00000000
      4.69500000	      4.18802635	    -31.09766890	      3.20096171	      0.03301309	      0.45105211	     -1.15667060	    128.51011628	    -43.70695563	     26.76075535	    109.97044911	      0.00000000	      9.93678433	      1.91934642	     17.77971818	      0.00000000	      0.00000000	    122.99780825	    -32.46091418	     21.55606348	    103.45928184	      0.00000000	     -9.95471341	      1.80570511	     14.15070962	      0.00000000	      0.00000000
      4.70000000	      4.29420719	    -31.27051072	      3.14899084	      0.03229777	      0.45209950	     -1.15678807	    128.46454567	    -43.77564573	     26.56864677	    109.81205164	      0.00000000	      9.93620700	      1.91658186	     17.71901160	      0.00000000	      0.00000000	    123.12056052	    -32.27755669	     21.50736875	    103.32330516	      0.00000000	     -9.95447110	      1.80333187	     13.98924735	      0.00000000	      0.00000000
      4.70500000	      4.38081527	    -31.35582175	      3.31166846	      0.03161300	      0.45312876	     -1.15689599	    128.55195370	    -43.66628440	     26.65831138	    109.68606395	      0.00000000	      9.93563503	      1.91438296	     17.60686137	      0.00000000	      0.00000000	    122.99638272	    -32.27012560	     21.19561651	    103.16889159	      0.00000000	     -9.95421821	      1.80063684	     13.88122745	      0.00000000	      0.00000000
      4.71000000	      4.48045211	    -31.42787068	      3.34061119	      0.03091062	      0.45423526	     -1.15703194	    128.48159771	    -43.67946035	     26.56449057	    109.53049765	      0.00000000	      9.93495524	      1.91166782	     17.53015285	      0.00000000	      0.00000000	    122.93679285	    -32.14621737	     21.03238830	    103.01937018	      0.00000000	     -9.95394922	      1.79802720	     13.76705569	      0.00000000	      0.00000000
      4.71500000	      4.58454541	    -31.53997912	      3.39386574	      0.03015547	      0.45543247	     -1.15717236	    128.45884619	    -43.66991822	     26.49407008	    109.36707161	      0.00000000	      9.93431294	      1.90881549	     17.42856270	      0.00000000	      0.00000000	    122.89861230	    -32.03276035	     20.83748442	    102.85543336	      0.00000000	     -9.95365881	      1.79516597	     13.62739560	      0.00000000	      0.00000000
      4.72000000	      4.68639627	    -31.66478017	      3.47493304	      0.02938474	      0.45666255	     -1.15730659	    128.47532584	    -43.63824835	     26.45278475	    109.20306538	      0.00000000	      9.93362908	      1.90595304	     17.32755680	      0.00000000	      0.00000000	    122.84650445	    -31.94020816	     20.60895774	    102.68279756	      0.00000000	     -9.95334418	      1.79215290	     13.49667117	      0.00000000	      0.00000000
